<svg width="1383" height="1207" viewBox="0 0 1383 1207" fill="none" xmlns="http://www.w3.org/2000/svg">
<mask id="mask0_163_3596" style="mask-type:luminance" maskUnits="userSpaceOnUse" x="120" y="64" width="1143" height="1143">
<circle cx="691.45" cy="635.22" r="571" fill="white"/>
</mask>
<g mask="url(#mask0_163_3596)">
<g opacity="0.15">
<circle cx="131.256" cy="84.139" r="3.36555" fill="white"/>
<circle cx="163.23" cy="84.139" r="3.36555" fill="white"/>
<circle cx="195.202" cy="84.139" r="3.36555" fill="white"/>
<circle cx="227.175" cy="84.139" r="3.36555" fill="white"/>
<circle cx="259.148" cy="84.139" r="3.36555" fill="white"/>
<circle cx="291.12" cy="84.139" r="3.36555" fill="white"/>
<circle cx="323.093" cy="84.139" r="3.36555" fill="white"/>
<circle cx="131.256" cy="111.063" r="3.36555" fill="white"/>
<circle cx="163.23" cy="111.063" r="3.36555" fill="white"/>
<circle cx="195.202" cy="111.063" r="3.36555" fill="white"/>
<circle cx="227.175" cy="111.063" r="3.36555" fill="white"/>
<circle cx="259.148" cy="111.063" r="3.36555" fill="white"/>
<circle cx="291.12" cy="111.063" r="3.36555" fill="white"/>
<circle cx="323.093" cy="111.063" r="3.36555" fill="white"/>
<circle cx="131.256" cy="137.988" r="3.36555" fill="white"/>
<circle cx="163.23" cy="137.988" r="3.36555" fill="white"/>
<circle cx="195.202" cy="137.988" r="3.36555" fill="white"/>
<circle cx="227.175" cy="137.988" r="3.36555" fill="white"/>
<circle cx="259.148" cy="137.988" r="3.36555" fill="white"/>
<circle cx="291.12" cy="137.988" r="3.36555" fill="white"/>
<circle cx="323.093" cy="137.988" r="3.36555" fill="white"/>
<circle cx="131.256" cy="164.912" r="3.36555" fill="white"/>
<circle cx="163.23" cy="164.912" r="3.36555" fill="white"/>
<circle cx="195.202" cy="164.912" r="3.36555" fill="white"/>
<circle cx="227.175" cy="164.912" r="3.36555" fill="white"/>
<circle cx="259.148" cy="164.912" r="3.36555" fill="white"/>
<circle cx="291.12" cy="164.912" r="3.36555" fill="white"/>
<circle cx="323.093" cy="164.912" r="3.36555" fill="white"/>
<circle cx="131.256" cy="191.837" r="3.36555" fill="white"/>
<circle cx="163.23" cy="191.837" r="3.36555" fill="white"/>
<circle cx="195.202" cy="191.837" r="3.36555" fill="white"/>
<circle cx="227.175" cy="191.837" r="3.36555" fill="white"/>
<circle cx="259.148" cy="191.837" r="3.36555" fill="white"/>
<circle cx="291.12" cy="191.837" r="3.36555" fill="white"/>
<circle cx="323.093" cy="191.837" r="3.36555" fill="white"/>
<circle cx="131.256" cy="218.761" r="3.36555" fill="white"/>
<circle cx="163.23" cy="218.761" r="3.36555" fill="white"/>
<circle cx="195.202" cy="218.761" r="3.36555" fill="white"/>
<circle cx="227.175" cy="218.761" r="3.36555" fill="white"/>
<circle cx="259.148" cy="218.761" r="3.36555" fill="white"/>
<circle cx="291.12" cy="218.761" r="3.36555" fill="white"/>
<circle cx="323.093" cy="218.761" r="3.36555" fill="white"/>
<circle cx="131.256" cy="245.685" r="3.36555" fill="white"/>
<circle cx="163.23" cy="245.685" r="3.36555" fill="white"/>
<circle cx="195.202" cy="245.685" r="3.36555" fill="white"/>
<circle cx="227.175" cy="245.685" r="3.36555" fill="white"/>
<circle cx="259.148" cy="245.685" r="3.36555" fill="white"/>
<circle cx="291.12" cy="245.685" r="3.36555" fill="white"/>
<circle cx="323.093" cy="245.685" r="3.36555" fill="white"/>
<circle cx="131.256" cy="272.61" r="3.36555" fill="white"/>
<circle cx="163.23" cy="272.61" r="3.36555" fill="white"/>
<circle cx="195.202" cy="272.61" r="3.36555" fill="white"/>
<circle cx="227.175" cy="272.61" r="3.36555" fill="white"/>
<circle cx="259.148" cy="272.61" r="3.36555" fill="white"/>
<circle cx="291.12" cy="272.61" r="3.36555" fill="white"/>
<circle cx="323.093" cy="272.61" r="3.36555" fill="white"/>
<circle cx="131.256" cy="299.534" r="3.36555" fill="white"/>
<circle cx="163.23" cy="299.534" r="3.36555" fill="white"/>
<circle cx="195.202" cy="299.534" r="3.36555" fill="white"/>
<circle cx="227.175" cy="299.534" r="3.36555" fill="white"/>
<circle cx="259.148" cy="299.534" r="3.36555" fill="white"/>
<circle cx="291.12" cy="299.534" r="3.36555" fill="white"/>
<circle cx="323.093" cy="299.534" r="3.36555" fill="white"/>
<circle cx="131.256" cy="326.459" r="3.36555" fill="white"/>
<circle cx="163.23" cy="326.459" r="3.36555" fill="white"/>
<circle cx="195.202" cy="326.459" r="3.36555" fill="white"/>
<circle cx="227.175" cy="326.459" r="3.36555" fill="white"/>
<circle cx="259.148" cy="326.459" r="3.36555" fill="white"/>
<circle cx="291.12" cy="326.459" r="3.36555" fill="white"/>
<circle cx="323.093" cy="326.459" r="3.36555" fill="white"/>
<circle cx="131.256" cy="353.383" r="3.36555" fill="white"/>
<circle cx="163.23" cy="353.383" r="3.36555" fill="white"/>
<circle cx="195.202" cy="353.383" r="3.36555" fill="white"/>
<circle cx="227.175" cy="353.383" r="3.36555" fill="white"/>
<circle cx="259.148" cy="353.383" r="3.36555" fill="white"/>
<circle cx="291.12" cy="353.383" r="3.36555" fill="white"/>
<circle cx="323.093" cy="353.383" r="3.36555" fill="white"/>
<circle cx="131.256" cy="380.307" r="3.36555" fill="white"/>
<circle cx="163.23" cy="380.307" r="3.36555" fill="white"/>
<circle cx="195.202" cy="380.307" r="3.36555" fill="white"/>
<circle cx="227.175" cy="380.307" r="3.36555" fill="white"/>
<circle cx="259.148" cy="380.307" r="3.36555" fill="white"/>
<circle cx="291.12" cy="380.307" r="3.36555" fill="white"/>
<circle cx="323.093" cy="380.307" r="3.36555" fill="white"/>
<circle cx="131.256" cy="407.232" r="3.36555" fill="white"/>
<circle cx="163.23" cy="407.232" r="3.36555" fill="white"/>
<circle cx="195.202" cy="407.232" r="3.36555" fill="white"/>
<circle cx="227.175" cy="407.232" r="3.36555" fill="white"/>
<circle cx="259.148" cy="407.232" r="3.36555" fill="white"/>
<circle cx="291.12" cy="407.232" r="3.36555" fill="white"/>
<circle cx="323.093" cy="407.232" r="3.36555" fill="white"/>
<circle cx="131.256" cy="434.157" r="3.36555" fill="white"/>
<circle cx="163.23" cy="434.157" r="3.36555" fill="white"/>
<circle cx="195.202" cy="434.157" r="3.36555" fill="white"/>
<circle cx="227.175" cy="434.157" r="3.36555" fill="white"/>
<circle cx="259.148" cy="434.157" r="3.36555" fill="white"/>
<circle cx="291.12" cy="434.157" r="3.36555" fill="white"/>
<circle cx="323.093" cy="434.157" r="3.36555" fill="white"/>
<circle cx="131.256" cy="461.081" r="3.36555" fill="white"/>
<circle cx="163.23" cy="461.081" r="3.36555" fill="white"/>
<circle cx="195.202" cy="461.081" r="3.36555" fill="white"/>
<circle cx="227.175" cy="461.081" r="3.36555" fill="white"/>
<circle cx="259.148" cy="461.081" r="3.36555" fill="white"/>
<circle cx="291.12" cy="461.081" r="3.36555" fill="white"/>
<circle cx="323.093" cy="461.081" r="3.36555" fill="white"/>
<circle cx="131.256" cy="488.006" r="3.36555" fill="white"/>
<circle cx="163.23" cy="488.006" r="3.36555" fill="white"/>
<circle cx="195.202" cy="488.006" r="3.36555" fill="white"/>
<circle cx="227.175" cy="488.006" r="3.36555" fill="white"/>
<circle cx="259.148" cy="488.006" r="3.36555" fill="white"/>
<circle cx="291.12" cy="488.006" r="3.36555" fill="white"/>
<circle cx="323.093" cy="488.006" r="3.36555" fill="white"/>
<circle cx="131.256" cy="514.93" r="3.36555" fill="white"/>
<circle cx="163.23" cy="514.93" r="3.36555" fill="white"/>
<circle cx="195.202" cy="514.93" r="3.36555" fill="white"/>
<circle cx="227.175" cy="514.93" r="3.36555" fill="white"/>
<circle cx="259.148" cy="514.93" r="3.36555" fill="white"/>
<circle cx="291.12" cy="514.93" r="3.36555" fill="white"/>
<circle cx="323.093" cy="514.93" r="3.36555" fill="white"/>
<circle cx="131.256" cy="541.854" r="3.36555" fill="white"/>
<circle cx="163.23" cy="541.854" r="3.36555" fill="white"/>
<circle cx="195.202" cy="541.854" r="3.36555" fill="white"/>
<circle cx="227.175" cy="541.854" r="3.36555" fill="white"/>
<circle cx="259.148" cy="541.854" r="3.36555" fill="white"/>
<circle cx="291.12" cy="541.854" r="3.36555" fill="white"/>
<circle cx="323.093" cy="541.854" r="3.36555" fill="white"/>
<circle cx="355.513" cy="84.139" r="3.36555" fill="white"/>
<circle cx="387.486" cy="84.139" r="3.36555" fill="white"/>
<circle cx="419.458" cy="84.139" r="3.36555" fill="white"/>
<circle cx="451.431" cy="84.139" r="3.36555" fill="white"/>
<circle cx="483.404" cy="84.139" r="3.36555" fill="white"/>
<circle cx="515.376" cy="84.139" r="3.36555" fill="white"/>
<circle cx="547.35" cy="84.139" r="3.36555" fill="white"/>
<circle cx="579.323" cy="84.139" r="3.36555" fill="white"/>
<circle cx="611.295" cy="84.139" r="3.36555" fill="white"/>
<circle cx="643.268" cy="84.139" r="3.36555" fill="white"/>
<circle cx="675.241" cy="84.139" r="3.36555" fill="white"/>
<circle cx="355.513" cy="111.063" r="3.36555" fill="white"/>
<circle cx="387.486" cy="111.063" r="3.36555" fill="white"/>
<circle cx="419.458" cy="111.063" r="3.36555" fill="white"/>
<circle cx="451.431" cy="111.063" r="3.36555" fill="white"/>
<circle cx="483.404" cy="111.063" r="3.36555" fill="white"/>
<circle cx="515.376" cy="111.063" r="3.36555" fill="white"/>
<circle cx="547.35" cy="111.063" r="3.36555" fill="white"/>
<circle cx="579.323" cy="111.063" r="3.36555" fill="white"/>
<circle cx="611.295" cy="111.063" r="3.36555" fill="white"/>
<circle cx="643.268" cy="111.063" r="3.36555" fill="white"/>
<circle cx="675.241" cy="111.063" r="3.36555" fill="white"/>
<circle cx="355.513" cy="137.988" r="3.36555" fill="white"/>
<circle cx="387.486" cy="137.988" r="3.36555" fill="white"/>
<circle cx="419.458" cy="137.988" r="3.36555" fill="white"/>
<circle cx="451.431" cy="137.988" r="3.36555" fill="white"/>
<circle cx="483.404" cy="137.988" r="3.36555" fill="white"/>
<circle cx="515.376" cy="137.988" r="3.36555" fill="white"/>
<circle cx="547.35" cy="137.988" r="3.36555" fill="white"/>
<circle cx="579.323" cy="137.988" r="3.36555" fill="white"/>
<circle cx="611.295" cy="137.988" r="3.36555" fill="white"/>
<circle cx="643.268" cy="137.988" r="3.36555" fill="white"/>
<circle cx="675.241" cy="137.988" r="3.36555" fill="white"/>
<circle cx="355.513" cy="164.912" r="3.36555" fill="white"/>
<circle cx="387.486" cy="164.912" r="3.36555" fill="white"/>
<circle cx="419.458" cy="164.912" r="3.36555" fill="white"/>
<circle cx="451.431" cy="164.912" r="3.36555" fill="white"/>
<circle cx="483.404" cy="164.912" r="3.36555" fill="white"/>
<circle cx="515.376" cy="164.912" r="3.36555" fill="white"/>
<circle cx="547.35" cy="164.912" r="3.36555" fill="white"/>
<circle cx="579.323" cy="164.912" r="3.36555" fill="white"/>
<circle cx="611.295" cy="164.912" r="3.36555" fill="white"/>
<circle cx="643.268" cy="164.912" r="3.36555" fill="white"/>
<circle cx="675.241" cy="164.912" r="3.36555" fill="white"/>
<circle cx="355.513" cy="191.837" r="3.36555" fill="white"/>
<circle cx="387.486" cy="191.837" r="3.36555" fill="white"/>
<circle cx="419.458" cy="191.837" r="3.36555" fill="white"/>
<circle cx="451.431" cy="191.837" r="3.36555" fill="white"/>
<circle cx="483.404" cy="191.837" r="3.36555" fill="white"/>
<circle cx="515.376" cy="191.837" r="3.36555" fill="white"/>
<circle cx="547.35" cy="191.837" r="3.36555" fill="white"/>
<circle cx="579.323" cy="191.837" r="3.36555" fill="white"/>
<circle cx="611.295" cy="191.837" r="3.36555" fill="white"/>
<circle cx="643.268" cy="191.837" r="3.36555" fill="white"/>
<circle cx="675.241" cy="191.837" r="3.36555" fill="white"/>
<circle cx="355.513" cy="218.761" r="3.36555" fill="white"/>
<circle cx="387.486" cy="218.761" r="3.36555" fill="white"/>
<circle cx="419.458" cy="218.761" r="3.36555" fill="white"/>
<circle cx="451.431" cy="218.761" r="3.36555" fill="white"/>
<circle cx="483.404" cy="218.761" r="3.36555" fill="white"/>
<circle cx="515.376" cy="218.761" r="3.36555" fill="white"/>
<circle cx="547.35" cy="218.761" r="3.36555" fill="white"/>
<circle cx="579.323" cy="218.761" r="3.36555" fill="white"/>
<circle cx="611.295" cy="218.761" r="3.36555" fill="white"/>
<circle cx="643.268" cy="218.761" r="3.36555" fill="white"/>
<circle cx="675.241" cy="218.761" r="3.36555" fill="white"/>
<circle cx="355.513" cy="245.685" r="3.36555" fill="white"/>
<circle cx="387.486" cy="245.685" r="3.36555" fill="white"/>
<circle cx="419.458" cy="245.685" r="3.36555" fill="white"/>
<circle cx="451.431" cy="245.685" r="3.36555" fill="white"/>
<circle cx="483.404" cy="245.685" r="3.36555" fill="white"/>
<circle cx="515.376" cy="245.685" r="3.36555" fill="white"/>
<circle cx="547.35" cy="245.685" r="3.36555" fill="white"/>
<circle cx="579.323" cy="245.685" r="3.36555" fill="white"/>
<circle cx="611.295" cy="245.685" r="3.36555" fill="white"/>
<circle cx="643.268" cy="245.685" r="3.36555" fill="white"/>
<circle cx="675.241" cy="245.685" r="3.36555" fill="white"/>
<circle cx="355.513" cy="272.61" r="3.36555" fill="white"/>
<circle cx="387.486" cy="272.61" r="3.36555" fill="white"/>
<circle cx="419.458" cy="272.61" r="3.36555" fill="white"/>
<circle cx="451.431" cy="272.61" r="3.36555" fill="white"/>
<circle cx="483.404" cy="272.61" r="3.36555" fill="white"/>
<circle cx="515.376" cy="272.61" r="3.36555" fill="white"/>
<circle cx="547.35" cy="272.61" r="3.36555" fill="white"/>
<circle cx="579.323" cy="272.61" r="3.36555" fill="white"/>
<circle cx="611.295" cy="272.61" r="3.36555" fill="white"/>
<circle cx="643.268" cy="272.61" r="3.36555" fill="white"/>
<circle cx="675.241" cy="272.61" r="3.36555" fill="white"/>
<circle cx="355.513" cy="299.534" r="3.36555" fill="white"/>
<circle cx="387.486" cy="299.534" r="3.36555" fill="white"/>
<circle cx="419.458" cy="299.534" r="3.36555" fill="white"/>
<circle cx="451.431" cy="299.534" r="3.36555" fill="white"/>
<circle cx="483.404" cy="299.534" r="3.36555" fill="white"/>
<circle cx="515.376" cy="299.534" r="3.36555" fill="white"/>
<circle cx="547.35" cy="299.534" r="3.36555" fill="white"/>
<circle cx="579.323" cy="299.534" r="3.36555" fill="white"/>
<circle cx="611.295" cy="299.534" r="3.36555" fill="white"/>
<circle cx="643.268" cy="299.534" r="3.36555" fill="white"/>
<circle cx="675.241" cy="299.534" r="3.36555" fill="white"/>
<circle cx="355.513" cy="326.459" r="3.36555" fill="white"/>
<circle cx="387.486" cy="326.459" r="3.36555" fill="white"/>
<circle cx="419.458" cy="326.459" r="3.36555" fill="white"/>
<circle cx="451.431" cy="326.459" r="3.36555" fill="white"/>
<circle cx="483.404" cy="326.459" r="3.36555" fill="white"/>
<circle cx="515.376" cy="326.459" r="3.36555" fill="white"/>
<circle cx="547.35" cy="326.459" r="3.36555" fill="white"/>
<circle cx="579.323" cy="326.459" r="3.36555" fill="white"/>
<circle cx="611.295" cy="326.459" r="3.36555" fill="white"/>
<circle cx="643.268" cy="326.459" r="3.36555" fill="white"/>
<circle cx="675.241" cy="326.459" r="3.36555" fill="white"/>
<circle cx="355.513" cy="353.383" r="3.36555" fill="white"/>
<circle cx="387.486" cy="353.383" r="3.36555" fill="white"/>
<circle cx="419.458" cy="353.383" r="3.36555" fill="white"/>
<circle cx="451.431" cy="353.383" r="3.36555" fill="white"/>
<circle cx="483.404" cy="353.383" r="3.36555" fill="white"/>
<circle cx="515.376" cy="353.383" r="3.36555" fill="white"/>
<circle cx="547.35" cy="353.383" r="3.36555" fill="white"/>
<circle cx="579.323" cy="353.383" r="3.36555" fill="white"/>
<circle cx="611.295" cy="353.383" r="3.36555" fill="white"/>
<circle cx="643.268" cy="353.383" r="3.36555" fill="white"/>
<circle cx="675.241" cy="353.383" r="3.36555" fill="white"/>
<circle cx="355.513" cy="380.307" r="3.36555" fill="white"/>
<circle cx="387.486" cy="380.307" r="3.36555" fill="white"/>
<circle cx="419.458" cy="380.307" r="3.36555" fill="white"/>
<circle cx="451.431" cy="380.307" r="3.36555" fill="white"/>
<circle cx="483.404" cy="380.307" r="3.36555" fill="white"/>
<circle cx="515.376" cy="380.307" r="3.36555" fill="white"/>
<circle cx="547.35" cy="380.307" r="3.36555" fill="white"/>
<circle cx="579.323" cy="380.307" r="3.36555" fill="white"/>
<circle cx="611.295" cy="380.307" r="3.36555" fill="white"/>
<circle cx="643.268" cy="380.307" r="3.36555" fill="white"/>
<circle cx="675.241" cy="380.307" r="3.36555" fill="white"/>
<circle cx="355.513" cy="407.232" r="3.36555" fill="white"/>
<circle cx="387.486" cy="407.232" r="3.36555" fill="white"/>
<circle cx="419.458" cy="407.232" r="3.36555" fill="white"/>
<circle cx="451.431" cy="407.232" r="3.36555" fill="white"/>
<circle cx="483.404" cy="407.232" r="3.36555" fill="white"/>
<circle cx="515.376" cy="407.232" r="3.36555" fill="white"/>
<circle cx="547.35" cy="407.232" r="3.36555" fill="white"/>
<circle cx="579.323" cy="407.232" r="3.36555" fill="white"/>
<circle cx="611.295" cy="407.232" r="3.36555" fill="white"/>
<circle cx="643.268" cy="407.232" r="3.36555" fill="white"/>
<circle cx="675.241" cy="407.232" r="3.36555" fill="white"/>
<circle cx="355.513" cy="434.157" r="3.36555" fill="white"/>
<circle cx="387.486" cy="434.157" r="3.36555" fill="white"/>
<circle cx="419.458" cy="434.157" r="3.36555" fill="white"/>
<circle cx="451.431" cy="434.157" r="3.36555" fill="white"/>
<circle cx="483.404" cy="434.157" r="3.36555" fill="white"/>
<circle cx="515.376" cy="434.157" r="3.36555" fill="white"/>
<circle cx="547.35" cy="434.157" r="3.36555" fill="white"/>
<circle cx="579.323" cy="434.157" r="3.36555" fill="white"/>
<circle cx="611.295" cy="434.157" r="3.36555" fill="white"/>
<circle cx="643.268" cy="434.157" r="3.36555" fill="white"/>
<circle cx="675.241" cy="434.157" r="3.36555" fill="white"/>
<circle cx="355.513" cy="461.081" r="3.36555" fill="white"/>
<circle cx="387.486" cy="461.081" r="3.36555" fill="white"/>
<circle cx="419.458" cy="461.081" r="3.36555" fill="white"/>
<circle cx="451.431" cy="461.081" r="3.36555" fill="white"/>
<circle cx="483.404" cy="461.081" r="3.36555" fill="white"/>
<circle cx="515.376" cy="461.081" r="3.36555" fill="white"/>
<circle cx="547.35" cy="461.081" r="3.36555" fill="white"/>
<circle cx="579.323" cy="461.081" r="3.36555" fill="white"/>
<circle cx="611.295" cy="461.081" r="3.36555" fill="white"/>
<circle cx="643.268" cy="461.081" r="3.36555" fill="white"/>
<circle cx="675.241" cy="461.081" r="3.36555" fill="white"/>
<circle cx="355.513" cy="488.006" r="3.36555" fill="white"/>
<circle cx="387.486" cy="488.006" r="3.36555" fill="white"/>
<circle cx="419.458" cy="488.006" r="3.36555" fill="white"/>
<circle cx="451.431" cy="488.006" r="3.36555" fill="white"/>
<circle cx="483.404" cy="488.006" r="3.36555" fill="white"/>
<circle cx="515.376" cy="488.006" r="3.36555" fill="white"/>
<circle cx="547.35" cy="488.006" r="3.36555" fill="white"/>
<circle cx="579.323" cy="488.006" r="3.36555" fill="white"/>
<circle cx="611.295" cy="488.006" r="3.36555" fill="white"/>
<circle cx="643.268" cy="488.006" r="3.36555" fill="white"/>
<circle cx="675.241" cy="488.006" r="3.36555" fill="white"/>
<circle cx="355.513" cy="514.93" r="3.36555" fill="white"/>
<circle cx="387.486" cy="514.93" r="3.36555" fill="white"/>
<circle cx="419.458" cy="514.93" r="3.36555" fill="white"/>
<circle cx="451.431" cy="514.93" r="3.36555" fill="white"/>
<circle cx="483.404" cy="514.93" r="3.36555" fill="white"/>
<circle cx="515.376" cy="514.93" r="3.36555" fill="white"/>
<circle cx="547.35" cy="514.93" r="3.36555" fill="white"/>
<circle cx="579.323" cy="514.93" r="3.36555" fill="white"/>
<circle cx="611.295" cy="514.93" r="3.36555" fill="white"/>
<circle cx="643.268" cy="514.93" r="3.36555" fill="white"/>
<circle cx="675.241" cy="514.93" r="3.36555" fill="white"/>
<circle cx="355.513" cy="541.854" r="3.36555" fill="white"/>
<circle cx="387.486" cy="541.854" r="3.36555" fill="white"/>
<circle cx="419.458" cy="541.854" r="3.36555" fill="white"/>
<circle cx="451.431" cy="541.854" r="3.36555" fill="white"/>
<circle cx="483.404" cy="541.854" r="3.36555" fill="white"/>
<circle cx="515.376" cy="541.854" r="3.36555" fill="white"/>
<circle cx="547.35" cy="541.854" r="3.36555" fill="white"/>
<circle cx="579.323" cy="541.854" r="3.36555" fill="white"/>
<circle cx="611.295" cy="541.854" r="3.36555" fill="white"/>
<circle cx="643.268" cy="541.854" r="3.36555" fill="white"/>
<circle cx="675.241" cy="541.854" r="3.36555" fill="white"/>
<circle cx="707.66" cy="84.139" r="3.36555" fill="white"/>
<circle cx="739.633" cy="84.139" r="3.36555" fill="white"/>
<circle cx="771.606" cy="84.139" r="3.36555" fill="white"/>
<circle cx="803.578" cy="84.139" r="3.36555" fill="white"/>
<circle cx="835.551" cy="84.139" r="3.36555" fill="white"/>
<circle cx="867.525" cy="84.139" r="3.36555" fill="white"/>
<circle cx="899.497" cy="84.139" r="3.36555" fill="white"/>
<circle cx="931.47" cy="84.139" r="3.36555" fill="white"/>
<circle cx="963.443" cy="84.139" r="3.36555" fill="white"/>
<circle cx="995.415" cy="84.139" r="3.36555" fill="white"/>
<circle cx="1027.39" cy="84.139" r="3.36555" fill="white"/>
<circle cx="707.66" cy="111.063" r="3.36555" fill="white"/>
<circle cx="739.633" cy="111.063" r="3.36555" fill="white"/>
<circle cx="771.606" cy="111.063" r="3.36555" fill="white"/>
<circle cx="803.578" cy="111.063" r="3.36555" fill="white"/>
<circle cx="835.551" cy="111.063" r="3.36555" fill="white"/>
<circle cx="867.525" cy="111.063" r="3.36555" fill="white"/>
<circle cx="899.497" cy="111.063" r="3.36555" fill="white"/>
<circle cx="931.47" cy="111.063" r="3.36555" fill="white"/>
<circle cx="963.443" cy="111.063" r="3.36555" fill="white"/>
<circle cx="995.415" cy="111.063" r="3.36555" fill="white"/>
<circle cx="1027.39" cy="111.063" r="3.36555" fill="white"/>
<circle cx="707.66" cy="137.988" r="3.36555" fill="white"/>
<circle cx="739.633" cy="137.988" r="3.36555" fill="white"/>
<circle cx="771.606" cy="137.988" r="3.36555" fill="white"/>
<circle cx="803.578" cy="137.988" r="3.36555" fill="white"/>
<circle cx="835.551" cy="137.988" r="3.36555" fill="white"/>
<circle cx="867.525" cy="137.988" r="3.36555" fill="white"/>
<circle cx="899.497" cy="137.988" r="3.36555" fill="white"/>
<circle cx="931.47" cy="137.988" r="3.36555" fill="white"/>
<circle cx="963.443" cy="137.988" r="3.36555" fill="white"/>
<circle cx="995.415" cy="137.988" r="3.36555" fill="white"/>
<circle cx="1027.39" cy="137.988" r="3.36555" fill="white"/>
<circle cx="707.66" cy="164.912" r="3.36555" fill="white"/>
<circle cx="739.633" cy="164.912" r="3.36555" fill="white"/>
<circle cx="771.606" cy="164.912" r="3.36555" fill="white"/>
<circle cx="803.578" cy="164.912" r="3.36555" fill="white"/>
<circle cx="835.551" cy="164.912" r="3.36555" fill="white"/>
<circle cx="867.525" cy="164.912" r="3.36555" fill="white"/>
<circle cx="899.497" cy="164.912" r="3.36555" fill="white"/>
<circle cx="931.47" cy="164.912" r="3.36555" fill="white"/>
<circle cx="963.443" cy="164.912" r="3.36555" fill="white"/>
<circle cx="995.415" cy="164.912" r="3.36555" fill="white"/>
<circle cx="1027.39" cy="164.912" r="3.36555" fill="white"/>
<circle cx="707.66" cy="191.837" r="3.36555" fill="white"/>
<circle cx="739.633" cy="191.837" r="3.36555" fill="white"/>
<circle cx="771.606" cy="191.837" r="3.36555" fill="white"/>
<circle cx="803.578" cy="191.837" r="3.36555" fill="white"/>
<circle cx="835.551" cy="191.837" r="3.36555" fill="white"/>
<circle cx="867.525" cy="191.837" r="3.36555" fill="white"/>
<circle cx="899.497" cy="191.837" r="3.36555" fill="white"/>
<circle cx="931.47" cy="191.837" r="3.36555" fill="white"/>
<circle cx="963.443" cy="191.837" r="3.36555" fill="white"/>
<circle cx="995.415" cy="191.837" r="3.36555" fill="white"/>
<circle cx="1027.39" cy="191.837" r="3.36555" fill="white"/>
<circle cx="707.66" cy="218.761" r="3.36555" fill="white"/>
<circle cx="739.633" cy="218.761" r="3.36555" fill="white"/>
<circle cx="771.606" cy="218.761" r="3.36555" fill="white"/>
<circle cx="803.578" cy="218.761" r="3.36555" fill="white"/>
<circle cx="835.551" cy="218.761" r="3.36555" fill="white"/>
<circle cx="867.525" cy="218.761" r="3.36555" fill="white"/>
<circle cx="899.497" cy="218.761" r="3.36555" fill="white"/>
<circle cx="931.47" cy="218.761" r="3.36555" fill="white"/>
<circle cx="963.443" cy="218.761" r="3.36555" fill="white"/>
<circle cx="995.415" cy="218.761" r="3.36555" fill="white"/>
<circle cx="1027.39" cy="218.761" r="3.36555" fill="white"/>
<circle cx="707.66" cy="245.685" r="3.36555" fill="white"/>
<circle cx="739.633" cy="245.685" r="3.36555" fill="white"/>
<circle cx="771.606" cy="245.685" r="3.36555" fill="white"/>
<circle cx="803.578" cy="245.685" r="3.36555" fill="white"/>
<circle cx="835.551" cy="245.685" r="3.36555" fill="white"/>
<circle cx="867.525" cy="245.685" r="3.36555" fill="white"/>
<circle cx="899.497" cy="245.685" r="3.36555" fill="white"/>
<circle cx="931.47" cy="245.685" r="3.36555" fill="white"/>
<circle cx="963.443" cy="245.685" r="3.36555" fill="white"/>
<circle cx="995.415" cy="245.685" r="3.36555" fill="white"/>
<circle cx="1027.39" cy="245.685" r="3.36555" fill="white"/>
<circle cx="707.66" cy="272.61" r="3.36555" fill="white"/>
<circle cx="739.633" cy="272.61" r="3.36555" fill="white"/>
<circle cx="771.606" cy="272.61" r="3.36555" fill="white"/>
<circle cx="803.578" cy="272.61" r="3.36555" fill="white"/>
<circle cx="835.551" cy="272.61" r="3.36555" fill="white"/>
<circle cx="867.525" cy="272.61" r="3.36555" fill="white"/>
<circle cx="899.497" cy="272.61" r="3.36555" fill="white"/>
<circle cx="931.47" cy="272.61" r="3.36555" fill="white"/>
<circle cx="963.443" cy="272.61" r="3.36555" fill="white"/>
<circle cx="995.415" cy="272.61" r="3.36555" fill="white"/>
<circle cx="1027.39" cy="272.61" r="3.36555" fill="white"/>
<circle cx="707.66" cy="299.534" r="3.36555" fill="white"/>
<circle cx="739.633" cy="299.534" r="3.36555" fill="white"/>
<circle cx="771.606" cy="299.534" r="3.36555" fill="white"/>
<circle cx="803.578" cy="299.534" r="3.36555" fill="white"/>
<circle cx="835.551" cy="299.534" r="3.36555" fill="white"/>
<circle cx="867.525" cy="299.534" r="3.36555" fill="white"/>
<circle cx="899.497" cy="299.534" r="3.36555" fill="white"/>
<circle cx="931.47" cy="299.534" r="3.36555" fill="white"/>
<circle cx="963.443" cy="299.534" r="3.36555" fill="white"/>
<circle cx="995.415" cy="299.534" r="3.36555" fill="white"/>
<circle cx="1027.39" cy="299.534" r="3.36555" fill="white"/>
<circle cx="707.66" cy="326.459" r="3.36555" fill="white"/>
<circle cx="739.633" cy="326.459" r="3.36555" fill="white"/>
<circle cx="771.606" cy="326.459" r="3.36555" fill="white"/>
<circle cx="803.578" cy="326.459" r="3.36555" fill="white"/>
<circle cx="835.551" cy="326.459" r="3.36555" fill="white"/>
<circle cx="867.525" cy="326.459" r="3.36555" fill="white"/>
<circle cx="899.497" cy="326.459" r="3.36555" fill="white"/>
<circle cx="931.47" cy="326.459" r="3.36555" fill="white"/>
<circle cx="963.443" cy="326.459" r="3.36555" fill="white"/>
<circle cx="995.415" cy="326.459" r="3.36555" fill="white"/>
<circle cx="1027.39" cy="326.459" r="3.36555" fill="white"/>
<circle cx="707.66" cy="353.383" r="3.36555" fill="white"/>
<circle cx="739.633" cy="353.383" r="3.36555" fill="white"/>
<circle cx="771.606" cy="353.383" r="3.36555" fill="white"/>
<circle cx="803.578" cy="353.383" r="3.36555" fill="white"/>
<circle cx="835.551" cy="353.383" r="3.36555" fill="white"/>
<circle cx="867.525" cy="353.383" r="3.36555" fill="white"/>
<circle cx="899.497" cy="353.383" r="3.36555" fill="white"/>
<circle cx="931.47" cy="353.383" r="3.36555" fill="white"/>
<circle cx="963.443" cy="353.383" r="3.36555" fill="white"/>
<circle cx="995.415" cy="353.383" r="3.36555" fill="white"/>
<circle cx="1027.39" cy="353.383" r="3.36555" fill="white"/>
<circle cx="707.66" cy="380.307" r="3.36555" fill="white"/>
<circle cx="739.633" cy="380.307" r="3.36555" fill="white"/>
<circle cx="771.606" cy="380.307" r="3.36555" fill="white"/>
<circle cx="803.578" cy="380.307" r="3.36555" fill="white"/>
<circle cx="835.551" cy="380.307" r="3.36555" fill="white"/>
<circle cx="867.525" cy="380.307" r="3.36555" fill="white"/>
<circle cx="899.497" cy="380.307" r="3.36555" fill="white"/>
<circle cx="931.47" cy="380.307" r="3.36555" fill="white"/>
<circle cx="963.443" cy="380.307" r="3.36555" fill="white"/>
<circle cx="995.415" cy="380.307" r="3.36555" fill="white"/>
<circle cx="1027.39" cy="380.307" r="3.36555" fill="white"/>
<circle cx="707.66" cy="407.232" r="3.36555" fill="white"/>
<circle cx="739.633" cy="407.232" r="3.36555" fill="white"/>
<circle cx="771.606" cy="407.232" r="3.36555" fill="white"/>
<circle cx="803.578" cy="407.232" r="3.36555" fill="white"/>
<circle cx="835.551" cy="407.232" r="3.36555" fill="white"/>
<circle cx="867.525" cy="407.232" r="3.36555" fill="white"/>
<circle cx="899.497" cy="407.232" r="3.36555" fill="white"/>
<circle cx="931.47" cy="407.232" r="3.36555" fill="white"/>
<circle cx="963.443" cy="407.232" r="3.36555" fill="white"/>
<circle cx="995.415" cy="407.232" r="3.36555" fill="white"/>
<circle cx="1027.39" cy="407.232" r="3.36555" fill="white"/>
<circle cx="707.66" cy="434.157" r="3.36555" fill="white"/>
<circle cx="739.633" cy="434.157" r="3.36555" fill="white"/>
<circle cx="771.606" cy="434.157" r="3.36555" fill="white"/>
<circle cx="803.578" cy="434.157" r="3.36555" fill="white"/>
<circle cx="835.551" cy="434.157" r="3.36555" fill="white"/>
<circle cx="867.525" cy="434.157" r="3.36555" fill="white"/>
<circle cx="899.497" cy="434.157" r="3.36555" fill="white"/>
<circle cx="931.47" cy="434.157" r="3.36555" fill="white"/>
<circle cx="963.443" cy="434.157" r="3.36555" fill="white"/>
<circle cx="995.415" cy="434.157" r="3.36555" fill="white"/>
<circle cx="1027.39" cy="434.157" r="3.36555" fill="white"/>
<circle cx="707.66" cy="461.081" r="3.36555" fill="white"/>
<circle cx="739.633" cy="461.081" r="3.36555" fill="white"/>
<circle cx="771.606" cy="461.081" r="3.36555" fill="white"/>
<circle cx="803.578" cy="461.081" r="3.36555" fill="white"/>
<circle cx="835.551" cy="461.081" r="3.36555" fill="white"/>
<circle cx="867.525" cy="461.081" r="3.36555" fill="white"/>
<circle cx="899.497" cy="461.081" r="3.36555" fill="white"/>
<circle cx="931.47" cy="461.081" r="3.36555" fill="white"/>
<circle cx="963.443" cy="461.081" r="3.36555" fill="white"/>
<circle cx="995.415" cy="461.081" r="3.36555" fill="white"/>
<circle cx="1027.39" cy="461.081" r="3.36555" fill="white"/>
<circle cx="707.66" cy="488.006" r="3.36555" fill="white"/>
<circle cx="739.633" cy="488.006" r="3.36555" fill="white"/>
<circle cx="771.606" cy="488.006" r="3.36555" fill="white"/>
<circle cx="803.578" cy="488.006" r="3.36555" fill="white"/>
<circle cx="835.551" cy="488.006" r="3.36555" fill="white"/>
<circle cx="867.525" cy="488.006" r="3.36555" fill="white"/>
<circle cx="899.497" cy="488.006" r="3.36555" fill="white"/>
<circle cx="931.47" cy="488.006" r="3.36555" fill="white"/>
<circle cx="963.443" cy="488.006" r="3.36555" fill="white"/>
<circle cx="995.415" cy="488.006" r="3.36555" fill="white"/>
<circle cx="1027.39" cy="488.006" r="3.36555" fill="white"/>
<circle cx="707.66" cy="514.93" r="3.36555" fill="white"/>
<circle cx="739.633" cy="514.93" r="3.36555" fill="white"/>
<circle cx="771.606" cy="514.93" r="3.36555" fill="white"/>
<circle cx="803.578" cy="514.93" r="3.36555" fill="white"/>
<circle cx="835.551" cy="514.93" r="3.36555" fill="white"/>
<circle cx="867.525" cy="514.93" r="3.36555" fill="white"/>
<circle cx="899.497" cy="514.93" r="3.36555" fill="white"/>
<circle cx="931.47" cy="514.93" r="3.36555" fill="white"/>
<circle cx="963.443" cy="514.93" r="3.36555" fill="white"/>
<circle cx="995.415" cy="514.93" r="3.36555" fill="white"/>
<circle cx="1027.39" cy="514.93" r="3.36555" fill="white"/>
<circle cx="707.66" cy="541.854" r="3.36555" fill="white"/>
<circle cx="739.633" cy="541.854" r="3.36555" fill="white"/>
<circle cx="771.606" cy="541.854" r="3.36555" fill="white"/>
<circle cx="803.578" cy="541.854" r="3.36555" fill="white"/>
<circle cx="835.551" cy="541.854" r="3.36555" fill="white"/>
<circle cx="867.525" cy="541.854" r="3.36555" fill="white"/>
<circle cx="899.497" cy="541.854" r="3.36555" fill="white"/>
<circle cx="931.47" cy="541.854" r="3.36555" fill="white"/>
<circle cx="963.443" cy="541.854" r="3.36555" fill="white"/>
<circle cx="995.415" cy="541.854" r="3.36555" fill="white"/>
<circle cx="1027.39" cy="541.854" r="3.36555" fill="white"/>
<circle cx="1059.81" cy="84.139" r="3.36555" fill="white"/>
<circle cx="1091.78" cy="84.139" r="3.36555" fill="white"/>
<circle cx="1123.75" cy="84.139" r="3.36555" fill="white"/>
<circle cx="1155.73" cy="84.139" r="3.36555" fill="white"/>
<circle cx="1187.7" cy="84.139" r="3.36555" fill="white"/>
<circle cx="1219.67" cy="84.139" r="3.36555" fill="white"/>
<circle cx="1251.64" cy="84.139" r="3.36555" fill="white"/>
<circle cx="1059.81" cy="111.063" r="3.36555" fill="white"/>
<circle cx="1091.78" cy="111.063" r="3.36555" fill="white"/>
<circle cx="1123.75" cy="111.063" r="3.36555" fill="white"/>
<circle cx="1155.73" cy="111.063" r="3.36555" fill="white"/>
<circle cx="1187.7" cy="111.063" r="3.36555" fill="white"/>
<circle cx="1219.67" cy="111.063" r="3.36555" fill="white"/>
<circle cx="1251.64" cy="111.063" r="3.36555" fill="white"/>
<circle cx="1059.81" cy="137.988" r="3.36555" fill="white"/>
<circle cx="1091.78" cy="137.988" r="3.36555" fill="white"/>
<circle cx="1123.75" cy="137.988" r="3.36555" fill="white"/>
<circle cx="1155.73" cy="137.988" r="3.36555" fill="white"/>
<circle cx="1187.7" cy="137.988" r="3.36555" fill="white"/>
<circle cx="1219.67" cy="137.988" r="3.36555" fill="white"/>
<circle cx="1251.64" cy="137.988" r="3.36555" fill="white"/>
<circle cx="1059.81" cy="164.912" r="3.36555" fill="white"/>
<circle cx="1091.78" cy="164.912" r="3.36555" fill="white"/>
<circle cx="1123.75" cy="164.912" r="3.36555" fill="white"/>
<circle cx="1155.73" cy="164.912" r="3.36555" fill="white"/>
<circle cx="1187.7" cy="164.912" r="3.36555" fill="white"/>
<circle cx="1219.67" cy="164.912" r="3.36555" fill="white"/>
<circle cx="1251.64" cy="164.912" r="3.36555" fill="white"/>
<circle cx="1059.81" cy="191.837" r="3.36555" fill="white"/>
<circle cx="1091.78" cy="191.837" r="3.36555" fill="white"/>
<circle cx="1123.75" cy="191.837" r="3.36555" fill="white"/>
<circle cx="1155.73" cy="191.837" r="3.36555" fill="white"/>
<circle cx="1187.7" cy="191.837" r="3.36555" fill="white"/>
<circle cx="1219.67" cy="191.837" r="3.36555" fill="white"/>
<circle cx="1251.64" cy="191.837" r="3.36555" fill="white"/>
<circle cx="1059.81" cy="218.761" r="3.36555" fill="white"/>
<circle cx="1091.78" cy="218.761" r="3.36555" fill="white"/>
<circle cx="1123.75" cy="218.761" r="3.36555" fill="white"/>
<circle cx="1155.73" cy="218.761" r="3.36555" fill="white"/>
<circle cx="1187.7" cy="218.761" r="3.36555" fill="white"/>
<circle cx="1219.67" cy="218.761" r="3.36555" fill="white"/>
<circle cx="1251.64" cy="218.761" r="3.36555" fill="white"/>
<circle cx="1059.81" cy="245.685" r="3.36555" fill="white"/>
<circle cx="1091.78" cy="245.685" r="3.36555" fill="white"/>
<circle cx="1123.75" cy="245.685" r="3.36555" fill="white"/>
<circle cx="1155.73" cy="245.685" r="3.36555" fill="white"/>
<circle cx="1187.7" cy="245.685" r="3.36555" fill="white"/>
<circle cx="1219.67" cy="245.685" r="3.36555" fill="white"/>
<circle cx="1251.64" cy="245.685" r="3.36555" fill="white"/>
<circle cx="1059.81" cy="272.61" r="3.36555" fill="white"/>
<circle cx="1091.78" cy="272.61" r="3.36555" fill="white"/>
<circle cx="1123.75" cy="272.61" r="3.36555" fill="white"/>
<circle cx="1155.73" cy="272.61" r="3.36555" fill="white"/>
<circle cx="1187.7" cy="272.61" r="3.36555" fill="white"/>
<circle cx="1219.67" cy="272.61" r="3.36555" fill="white"/>
<circle cx="1251.64" cy="272.61" r="3.36555" fill="white"/>
<circle cx="1059.81" cy="299.534" r="3.36555" fill="white"/>
<circle cx="1091.78" cy="299.534" r="3.36555" fill="white"/>
<circle cx="1123.75" cy="299.534" r="3.36555" fill="white"/>
<circle cx="1155.73" cy="299.534" r="3.36555" fill="white"/>
<circle cx="1187.7" cy="299.534" r="3.36555" fill="white"/>
<circle cx="1219.67" cy="299.534" r="3.36555" fill="white"/>
<circle cx="1251.64" cy="299.534" r="3.36555" fill="white"/>
<circle cx="1059.81" cy="326.459" r="3.36555" fill="white"/>
<circle cx="1091.78" cy="326.459" r="3.36555" fill="white"/>
<circle cx="1123.75" cy="326.459" r="3.36555" fill="white"/>
<circle cx="1155.73" cy="326.459" r="3.36555" fill="white"/>
<circle cx="1187.7" cy="326.459" r="3.36555" fill="white"/>
<circle cx="1219.67" cy="326.459" r="3.36555" fill="white"/>
<circle cx="1251.64" cy="326.459" r="3.36555" fill="white"/>
<circle cx="1059.81" cy="353.383" r="3.36555" fill="white"/>
<circle cx="1091.78" cy="353.383" r="3.36555" fill="white"/>
<circle cx="1123.75" cy="353.383" r="3.36555" fill="white"/>
<circle cx="1155.73" cy="353.383" r="3.36555" fill="white"/>
<circle cx="1187.7" cy="353.383" r="3.36555" fill="white"/>
<circle cx="1219.67" cy="353.383" r="3.36555" fill="white"/>
<circle cx="1251.64" cy="353.383" r="3.36555" fill="white"/>
<circle cx="1059.81" cy="380.307" r="3.36555" fill="white"/>
<circle cx="1091.78" cy="380.307" r="3.36555" fill="white"/>
<circle cx="1123.75" cy="380.307" r="3.36555" fill="white"/>
<circle cx="1155.73" cy="380.307" r="3.36555" fill="white"/>
<circle cx="1187.7" cy="380.307" r="3.36555" fill="white"/>
<circle cx="1219.67" cy="380.307" r="3.36555" fill="white"/>
<circle cx="1251.64" cy="380.307" r="3.36555" fill="white"/>
<circle cx="1059.81" cy="407.232" r="3.36555" fill="white"/>
<circle cx="1091.78" cy="407.232" r="3.36555" fill="white"/>
<circle cx="1123.75" cy="407.232" r="3.36555" fill="white"/>
<circle cx="1155.73" cy="407.232" r="3.36555" fill="white"/>
<circle cx="1187.7" cy="407.232" r="3.36555" fill="white"/>
<circle cx="1219.67" cy="407.232" r="3.36555" fill="white"/>
<circle cx="1251.64" cy="407.232" r="3.36555" fill="white"/>
<circle cx="1059.81" cy="434.157" r="3.36555" fill="white"/>
<circle cx="1091.78" cy="434.157" r="3.36555" fill="white"/>
<circle cx="1123.75" cy="434.157" r="3.36555" fill="white"/>
<circle cx="1155.73" cy="434.157" r="3.36555" fill="white"/>
<circle cx="1187.7" cy="434.157" r="3.36555" fill="white"/>
<circle cx="1219.67" cy="434.157" r="3.36555" fill="white"/>
<circle cx="1251.64" cy="434.157" r="3.36555" fill="white"/>
<circle cx="1059.81" cy="461.081" r="3.36555" fill="white"/>
<circle cx="1091.78" cy="461.081" r="3.36555" fill="white"/>
<circle cx="1123.75" cy="461.081" r="3.36555" fill="white"/>
<circle cx="1155.73" cy="461.081" r="3.36555" fill="white"/>
<circle cx="1187.7" cy="461.081" r="3.36555" fill="white"/>
<circle cx="1219.67" cy="461.081" r="3.36555" fill="white"/>
<circle cx="1251.64" cy="461.081" r="3.36555" fill="white"/>
<circle cx="1059.81" cy="488.006" r="3.36555" fill="white"/>
<circle cx="1091.78" cy="488.006" r="3.36555" fill="white"/>
<circle cx="1123.75" cy="488.006" r="3.36555" fill="white"/>
<circle cx="1155.73" cy="488.006" r="3.36555" fill="white"/>
<circle cx="1187.7" cy="488.006" r="3.36555" fill="white"/>
<circle cx="1219.67" cy="488.006" r="3.36555" fill="white"/>
<circle cx="1251.64" cy="488.006" r="3.36555" fill="white"/>
<circle cx="1059.81" cy="514.93" r="3.36555" fill="white"/>
<circle cx="1091.78" cy="514.93" r="3.36555" fill="white"/>
<circle cx="1123.75" cy="514.93" r="3.36555" fill="white"/>
<circle cx="1155.73" cy="514.93" r="3.36555" fill="white"/>
<circle cx="1187.7" cy="514.93" r="3.36555" fill="white"/>
<circle cx="1219.67" cy="514.93" r="3.36555" fill="white"/>
<circle cx="1251.64" cy="514.93" r="3.36555" fill="white"/>
<circle cx="1059.81" cy="541.854" r="3.36555" fill="white"/>
<circle cx="1091.78" cy="541.854" r="3.36555" fill="white"/>
<circle cx="1123.75" cy="541.854" r="3.36555" fill="white"/>
<circle cx="1155.73" cy="541.854" r="3.36555" fill="white"/>
<circle cx="1187.7" cy="541.854" r="3.36555" fill="white"/>
<circle cx="1219.67" cy="541.854" r="3.36555" fill="white"/>
<circle cx="1251.64" cy="541.854" r="3.36555" fill="white"/>
</g>
</g>
</svg>
